<svg width="306" height="273" viewBox="0 0 306 273" fill="none" xmlns="http://www.w3.org/2000/svg">
<path d="M281.074 187.925C298.025 120.708 257.193 41.9683 187.806 0.21875C218.617 41.8848 230.975 91.3163 220.203 135.404C219.452 139.245 217.865 143.169 216.362 147.01C203.086 137.825 141.547 99.9167 67.5669 25.018C65.2289 22.68 107.647 85.3044 154.657 134.652C132.279 121.46 69.8214 76.704 30.4933 40.3818C35.0857 48.1473 41.2647 55.8292 47.4436 64.3461C80.5928 106.847 123.01 157.782 174.696 197.193C138.458 219.571 87.6067 221.158 35.9207 197.193C22.8114 191.766 12.04 184 0.433594 175.567C22.0599 209.551 55.209 239.694 95.2886 256.645C143.134 277.519 192.064 277.686 231.726 253.555C248.677 245.038 282.577 235.77 301.114 271.341C304.955 281.36 314.223 235.018 279.488 192.601C280.323 191.014 280.323 189.428 281.074 187.925Z" fill="white"/>
</svg>
